HIERARCHY
ROOT RootJoint
{
    OFFSET   0.000000   0.000000   0.000000
    CHANNELS 6 Xposition Yposition Zposition Xrotation Yrotation Zrotation
    JOINT pelvis_lowerback
    {
        OFFSET   0.000000   0.093605   0.000000
        CHANNELS 3 Xrotation Yrotation Zrotation
        JOINT lowerback_torso
        {
            OFFSET   0.000000   0.100000   0.000000
            CHANNELS 3 Xrotation Yrotation Zrotation
            JOINT torso_head
            {
                OFFSET   0.000000   0.282350   0.000000
                CHANNELS 3 Xrotation Yrotation Zrotation
                End Site
                {
                    OFFSET   0.000000   0.192650   0.000000
                }
            }
            JOINT rTorso_Clavicle
            {
                OFFSET  -0.001000   0.157500   0.000000
                CHANNELS 3 Xrotation Yrotation Zrotation
                JOINT rShoulder
                {
                    OFFSET  -0.117647   0.000000   0.000000
                    CHANNELS 3 Xrotation Yrotation Zrotation
                    JOINT rElbow
                    {
                        OFFSET  -0.245000   0.000000   0.000000
                        CHANNELS 3 Xrotation Yrotation Zrotation
                        JOINT rWrist
                        {
                            OFFSET  -0.240000   0.000000   0.000000
                            CHANNELS 3 Xrotation Yrotation Zrotation
                            End Site
                            {
                                OFFSET  -0.116353  -0.002500   0.000000
                            }
                        }
                    }
                }
            }
            JOINT lTorso_Clavicle
            {
                OFFSET   0.001000   0.157500   0.000000
                CHANNELS 3 Xrotation Yrotation Zrotation
                JOINT lShoulder
                {
                    OFFSET   0.117647   0.000000   0.000000
                    CHANNELS 3 Xrotation Yrotation Zrotation
                    JOINT lElbow
                    {
                        OFFSET   0.245000   0.000000   0.000000
                        CHANNELS 3 Xrotation Yrotation Zrotation
                        JOINT lWrist
                        {
                            OFFSET   0.240000   0.000000   0.000000
                            CHANNELS 3 Xrotation Yrotation Zrotation
                            End Site
                            {
                                OFFSET   0.116353  -0.002500   0.000000
                            }
                        }
                    }
                }
            }
        }
    }
    JOINT rHip
    {
        OFFSET  -0.100000  -0.051395   0.000000
        CHANNELS 3 Xrotation Yrotation Zrotation
        JOINT rKnee
        {
            OFFSET   0.000000  -0.410000   0.000000
            CHANNELS 3 Xrotation Yrotation Zrotation
            JOINT rAnkle
            {
                OFFSET   0.000000  -0.390000   0.000000
                CHANNELS 3 Xrotation Yrotation Zrotation
                JOINT rToeJoint
                {
                    OFFSET   0.000000  -0.050000   0.130000
                    CHANNELS 3 Xrotation Yrotation Zrotation
                    End Site
                    {
                        OFFSET  -0.010000   0.002000   0.060000
                    }
                }
            }
        }
    }
    JOINT lHip
    {
        OFFSET   0.100000  -0.051395   0.000000
        CHANNELS 3 Xrotation Yrotation Zrotation
        JOINT lKnee
        {
            OFFSET   0.000000  -0.410000   0.000000
            CHANNELS 3 Xrotation Yrotation Zrotation
            JOINT lAnkle
            {
                OFFSET   0.000000  -0.390000   0.000000
                CHANNELS 3 Xrotation Yrotation Zrotation
                JOINT lToeJoint
                {
                    OFFSET   0.000000  -0.050000   0.130000
                    CHANNELS 3 Xrotation Yrotation Zrotation
                    End Site
                    {
                        OFFSET   0.010000   0.002000   0.060000
                    }
                }
            }
        }
    }
}
MOTION
Frames: 7
Frame Time:   0.008333
 -2.398375   0.922792   3.941444 -171.992014 -65.776663 -176.211790   4.121588  -0.499727  -1.435539   2.980522  -1.713033   1.805947  -0.109618  -0.044357   2.061023   2.190161  -1.570731   8.905008   3.375757   4.406093  52.629159   0.000039  17.077936   0.000163  -2.337124   3.331451  -1.424054   3.750184   0.242484  -8.243811   2.102082  -6.258087 -54.608587  -0.000063 -15.731965   0.000279  -1.890274  -2.254555   4.891285   7.176695  -2.033161   0.098042   8.191336   0.000003   0.000016  -1.412428  -6.581609   4.764916 -15.517820  -0.000030  -0.000068   8.685838  -0.983888   5.759442   2.606535  -0.000000   0.000007  -8.338358   2.400024   3.367291   0.445762  -0.000000   0.000000
 -2.398258   0.922821   3.941537 -171.975647 -65.811257 -176.200222   4.127479  -0.495881  -1.453715   2.976712  -1.701048   1.788838  -0.104185  -0.057896   2.069250   2.181576  -1.576243   8.885357   3.380849   4.434052  52.656513   0.000048  16.987552   0.000177  -2.333325   3.331692  -1.393887   3.750010   0.292105  -8.220463   2.099269  -6.247498 -54.623574  -0.000059 -15.648275   0.000297  -1.889526  -2.258023   4.850621   7.159908  -2.033409   0.101616   8.218224   0.000004   0.000020  -1.402479  -6.585029   4.762229 -15.530409  -0.000024  -0.000057   8.663155  -1.000584   5.767031   2.628420   0.000000   0.000009  -8.332563   2.380084   3.353582   0.442910  -0.000001   0.000000
 -2.398145   0.922849   3.941638 -171.956082 -65.844802 -176.185236   4.134675  -0.491577  -1.472109   2.974728  -1.688435   1.772292  -0.099779  -0.070980   2.076561   2.174684  -1.581994   8.866329   3.386695   4.459277  52.681689   0.000056  16.901956   0.000186  -2.329843   3.322989  -1.364148   3.753335   0.341809  -8.195625   2.100038  -6.234743 -54.634876  -0.000053 -15.568134   0.000307  -1.889902  -2.252662   4.814682   7.143906  -2.033524   0.103972   8.246082   0.000005   0.000024  -1.392720  -6.588162   4.759612 -15.545976  -0.000020  -0.000050   8.641759  -1.016964   5.773319   2.650888   0.000000   0.000011  -8.327227   2.360616   3.340372   0.440009  -0.000001   0.000000
 -2.398060   0.922817   3.941721 -171.925310 -65.807746 -176.188434   4.144486  -0.462825  -1.471482   2.977135  -1.657688   1.763194  -0.094974  -0.082061   2.083584   2.164683  -1.583239   8.842013   3.389417   4.484911  52.702116   0.000067  16.823135   0.000170  -2.325819   3.316286  -1.334671   3.765078   0.397080  -8.170297   2.108048  -6.217539 -54.646117  -0.000047 -15.490805   0.000295  -1.891813  -2.236181   4.782045   7.131151  -2.011527   0.127561   8.279615   0.000004   0.000014  -1.391614  -6.569964   4.759641 -15.546207  -0.000016  -0.000040   8.619830  -1.089621   5.788554   2.711950   0.000003  -0.000049  -8.156827   2.276209   3.350497   0.678902   0.000001  -0.000421
 -2.397988   0.922843   3.941814 -171.901028 -65.808016 -176.168933   4.148989  -0.455716  -1.496438   2.978656  -1.640623   1.748787  -0.090916  -0.093632   2.090357   2.158662  -1.588479   8.828631   3.394417   4.506789  52.724325   0.000071  16.748389   0.000156  -2.322568   3.306959  -1.310209   3.776201   0.447912  -8.145698   2.116386  -6.200471 -54.651041  -0.000043 -15.417077   0.000283  -1.893728  -2.211081   4.756508   7.121348  -2.009899   0.126463   8.303157   0.000004   0.000012  -1.382621  -6.569679   4.756783 -15.558590  -0.000013  -0.000032   8.609361  -1.091952   5.789130   2.746083   0.000003  -0.000039  -8.204498   2.277138   3.331770   0.625932  -0.000009  -0.000338
 -2.397905   0.922874   3.941933 -171.885474 -65.824546 -176.156094   4.153758  -0.452537  -1.516710   2.978705  -1.628915   1.733386  -0.087844  -0.104621   2.095568   2.154892  -1.595191   8.813981   3.400643   4.526044  52.745127   0.000072  16.678188   0.000148  -2.319765   3.295651  -1.285442   3.784801   0.493665  -8.122004   2.122598  -6.185745 -54.656746  -0.000039 -15.349027   0.000270  -1.895437  -2.188079   4.731672   7.106792  -2.012759   0.124822   8.326095   0.000005   0.000012  -1.369604  -6.574591   4.753543 -15.577889  -0.000012  -0.000028   8.597575  -1.099633   5.789578   2.761922   0.000003  -0.000030  -8.231118   2.267460   3.315560   0.583114  -0.000014  -0.000272
 -2.397814   0.922908   3.942071 -171.870531 -65.846977 -176.143273   4.160404  -0.449508  -1.534846   2.979725  -1.618707   1.718922  -0.084888  -0.114776   2.100419   2.151981  -1.601900   8.799132   3.407020   4.543525  52.763897   0.000070  16.612384   0.000143  -2.317079   3.282988  -1.262058   3.791692   0.535526  -8.099583   2.127436  -6.172652 -54.662173  -0.000034 -15.286012   0.000255  -1.896921  -2.168443   4.707815   7.091343  -2.015429   0.122130   8.348192   0.000005   0.000013  -1.355170  -6.579623   4.749891 -15.599313  -0.000012  -0.000025   8.584294  -1.110355   5.789285   2.773900   0.000003  -0.000023  -8.247601   2.254560   3.301729   0.548381  -0.000017  -0.000218
